# xmcd
#
# Track frame offsets:
#	150
#	16196
#	37523
#	52012
#	82201
#	102832
#	118106
#	134941
#	152596
#	168534
#	186351
#
# Disc length: 2720 seconds
#
# Revision: 0
# Processed by: cddbd v1.5.2PL0 Copyright (c) Steve Scherf et al.
# Submitted via: audiograbber 1.83.01
#
DISCID=920a9e0b
DTITLE=Jürgen Drews - Feuer and Wasser
DYEAR=1978
DGENRE=Schlager
TTITLE0=Du Schaffst Mich (You Thrill Me)
TTITLE1=Lauf Von Hier Fort
TTITLE2=Rock'N'Roll Queen (Rockin' Tonight)
TTITLE3=Ich Stell Die Welt Mal Um
TTITLE4=Lucia (Luci-Ah)
TTITLE5=Donner Und Blitz (Thunder Island)
TTITLE6=Suzy Lee
TTITLE7=Wenn Du Mich Einmal Verläßt
TTITLE8=Hast Du Gar Keine Angst
TTITLE9=Der City-Gorilla
TTITLE10=Wo Ist Die Oase...Das Ding Ist Weg! (The Lion Sleep Tonight)
EXTD=
EXTT0=
EXTT1=
EXTT2=
EXTT3=
EXTT4=
EXTT5=
EXTT6=
EXTT7=
EXTT8=
EXTT9=
EXTT10=
PLAYORDER=
